<?xml version="1.0" encoding="utf-8"?>
<!-- Generator: Adobe Illustrator 22.1.0, SVG Export Plug-In . SVG Version: 6.00 Build 0)  -->
<svg version="1.1" id="Layer_1" xmlns="http://www.w3.org/2000/svg" xmlns:xlink="http://www.w3.org/1999/xlink" x="0px" y="0px"
	 viewBox="0 0 5 8" style="enable-background:new 0 0 5 8;" xml:space="preserve">
<style type="text/css">
	.st0{fill:#FFFFFF;}
</style>
<title>whiskers</title>
<path class="st0" d="M3.7,7.2C3.5,7.1,3.2,7,3,6.9L2.7,6.8C2.4,6.7,2.2,6.6,1.9,6.5c-0.2,0-0.4-0.1-0.6-0.1C1.2,6.2,1,6.2,0.8,6.2
	c0,0-0.1,0-0.1-0.1l0,0c0,0-0.1-0.1-0.1-0.1C0.8,5.8,0.9,5.8,1,5.8C1.1,5.9,1.3,6,1.4,6c0.1,0,0.2,0.1,0.3,0.1
	c0.2,0.1,0.4,0.2,0.6,0.2c0.1,0,0.2,0,0.3,0.1C2.8,6.5,3,6.6,3.1,6.7c0.2,0,0.3,0.1,0.4,0.2l0.8,0.4v0.2C4.1,7.5,3.9,7.4,3.7,7.2z
	 M1.4,4c-0.1-0.1-0.1-0.1,0-0.2l0,0c0,0,0.2-0.1,0.2-0.1c0.2,0,0.3,0,0.5-0.1c0.2-0.1,0.4-0.1,0.6-0.1c0.2,0,0.4,0,0.5-0.1
	c0,0,0.1,0,0.1,0c0.2,0,0.4,0.1,0.6,0.1c0.1,0,0.2,0,0.2,0c0,0,0,0,0.1,0l0,0v0.1C4,3.6,3.7,3.7,3.4,3.7L2.8,3.8
	C2.6,3.9,2.4,3.9,2.1,3.9C2,3.9,1.9,3.9,1.8,4C1.7,4.1,1.6,4.1,1.4,4z M1.9,2L1.9,2c0,0,0-0.1,0-0.1C1.9,1.8,2,1.7,2.1,1.6
	c0.2-0.1,0.3-0.2,0.5-0.3C3.1,1.1,3.6,0.8,4,0.5c0.1-0.1,0.1,0,0.2,0s0.1,0.2,0,0.2L4.1,0.9l0,0C3.8,0.9,3.6,1,3.5,1.2
	c-0.3,0.1-0.7,0.3-1,0.5C2.4,1.8,2.2,1.9,2.1,2c0,0,0,0-0.1,0C2,2,1.9,2,1.9,2L1.9,2z"/>
</svg>
