<svg id="Layer_1" data-name="Layer 1" xmlns="http://www.w3.org/2000/svg" viewBox="0 0 5 8"><defs><style>.cls-1{fill:#4b012c;}</style></defs><title>whiskers</title><path class="cls-1" d="M3.67,7.19c-.2-.11-.43-.21-.64-.3L2.7,6.8a3.07,3.07,0,0,1-.79-.33,1.37,1.37,0,0,1-.58-.14,1.43,1.43,0,0,0-.54-.16s-.05,0-.11-.08h0S.61,6,.63,6c.13-.18.25-.24.38-.17A.82.82,0,0,0,1.4,6a.67.67,0,0,1,.29.11,2,2,0,0,0,.65.2.39.39,0,0,1,.29.09,2.34,2.34,0,0,0,.5.25,1.4,1.4,0,0,1,.44.2l.81.45v.18A1.09,1.09,0,0,1,3.67,7.19ZM1.4,4a.15.15,0,0,1,0-.2s0,0,0,0,.18-.09.23-.07a1.3,1.3,0,0,0,.51-.11,2.39,2.39,0,0,1,.63-.14,3.38,3.38,0,0,0,.54-.09.11.11,0,0,1,.11,0A2,2,0,0,0,4,3.45a1,1,0,0,1,.25,0s0,0,.11,0h0v.07a2.79,2.79,0,0,1-1,.2l-.53.07a2.74,2.74,0,0,1-.7.09.45.45,0,0,0-.34.11C1.67,4.13,1.6,4.13,1.4,4ZM1.85,2s0,0,0,0a.4.4,0,0,1,0-.13,1.37,1.37,0,0,1,.23-.25,1.9,1.9,0,0,1,.54-.31A14.33,14.33,0,0,0,4,.5c.09-.06.14,0,.23,0s.07.18,0,.25L4.05.89h0a1.19,1.19,0,0,0-.56.31,5.57,5.57,0,0,0-.95.5A5.48,5.48,0,0,1,2.07,2s0,0-.09,0a.1.1,0,0,0-.07,0Z"/></svg>